<svg xmlns="http://www.w3.org/2000/svg" viewBox="0 0 48 48"><defs><style>.cls-1{fill:#bfbfbf;}.cls-2{fill:#fc6459;}.cls-3{fill:#424242;}</style></defs><title>target</title><g id="target"><path class="cls-1" d="M16.93,40.24l-1.43,5a2.4,2.4,0,0,1-4.62-1.32l1.66-5.82A17,17,0,0,0,16.93,40.24Z"/><path class="cls-1" d="M30.81,47a2.41,2.41,0,0,1-2.31-1.74l-1.43-5a17,17,0,0,0,4.39-2.12l1.66,5.82A2.4,2.4,0,0,1,30.81,47Z"/><path class="cls-2" d="M22,10A14,14,0,1,0,36,24,14,14,0,0,0,22,10Zm0,24A10,10,0,1,1,32,24,10,10,0,0,1,22,34Z"/><path class="cls-3" d="M22,32a8,8,0,1,1,8-8A8,8,0,0,1,22,32Zm0-14a6,6,0,1,0,6,6A6,6,0,0,0,22,18Z"/><circle class="cls-1" cx="22" cy="24" r="4"/><path class="cls-3" d="M41,23H40A18,18,0,0,0,23,6.05V5a1,1,0,0,0-2,0v1A18,18,0,0,0,4.05,23H3a1,1,0,0,0,0,2h1a18,18,0,0,0,7.34,13.49L9.92,43.66a3.35,3.35,0,0,0,.55,3,3.4,3.4,0,0,0,6-1.11l1.17-4.09A17.79,17.79,0,0,0,21,42v1a1,1,0,0,0,2,0V42a17.79,17.79,0,0,0,3.37-.51l1.17,4.1a3.41,3.41,0,0,0,6,1.1,3.33,3.33,0,0,0,.55-3l-1.47-5.18A18,18,0,0,0,40,25h1a1,1,0,0,0,0-2ZM14.54,45a1.4,1.4,0,0,1-2.47.46,1.39,1.39,0,0,1-.23-1.23l1.31-4.57a16.67,16.67,0,0,0,2.57,1.19Zm17.62-.76A1.4,1.4,0,0,1,30.81,46a1.42,1.42,0,0,1-1.35-1l-1.18-4.16a16.67,16.67,0,0,0,2.57-1.19ZM37,25h1A16,16,0,0,1,23,40V39a1,1,0,0,0-2,0v1A16,16,0,0,1,6.05,25H7a1,1,0,0,0,0-2h-1A16,16,0,0,1,21,8.05V9a1,1,0,0,0,2,0V8.05A16,16,0,0,1,38,23H37a1,1,0,0,0,0,2Z"/><polygon class="cls-1" points="36.55 9.46 35.09 5.09 40.18 0 41.64 4.36 36.55 9.46"/><polygon class="cls-1" points="36.55 9.46 40.91 10.91 46 5.82 41.64 4.36 36.55 9.46"/><path class="cls-3" d="M22,25a1,1,0,0,1-.71-1.71L43.11,1.47a1,1,0,0,1,1.42,1.42L22.71,24.71A1,1,0,0,1,22,25Z"/></g></svg>